<svg version="1.1" id="dapplooker-logo" xmlns="http://www.w3.org/2000/svg" xmlns:xlink="http://www.w3.org/1999/xlink" x="0px" y="0px" viewBox="0 0 30 30" style="enable-background:new 0 0 2000 2000;" xml:space="preserve" width="30" height="30"><style type="text/css">
	.st0{fill:#F26822;}
	.st1{fill:#FFFFFF;}
</style><g><path class="st0" d="M23.124 20.4l-7.532 4.336c-0.374 0.215 -0.833 0.214 -1.206 -0.001l-7.522 -4.355c-0.372 -0.216 -0.603 -0.614 -0.601 -1.045l0.01 -8.691c0 -0.431 0.231 -0.829 0.604 -1.044l7.532 -4.338c0.374 -0.215 0.833 -0.214 1.206 0.001l7.522 4.355c0.372 0.216 0.603 0.614 0.601 1.045l-0.01 8.691C23.727 19.788 23.497 20.185 23.124 20.4"/><path class="st1" d="M21.597 19.361l-1.323 0.771c-0.17 0.099 -0.38 0.1 -0.55 0.003l-1.328 -0.759c-0.171 -0.098 -0.278 -0.28 -0.278 -0.478l-0.006 -5.611l-1.242 0.719l0.009 7.686c0 0.196 -0.104 0.378 -0.273 0.476l-1.323 0.771c-0.17 0.099 -0.38 0.1 -0.55 0.003l-1.328 -0.759c-0.171 -0.098 -0.278 -0.28 -0.278 -0.478l-0.006 -5.534l-1.241 0.717l0.007 1.996c0.001 0.196 -0.104 0.379 -0.273 0.478l-1.316 0.767c-0.17 0.099 -0.38 0.1 -0.55 0.003l-1.323 -0.755c-0.171 -0.098 -0.276 -0.279 -0.278 -0.476l-0.007 -2.037c-0.001 -0.196 0.104 -0.379 0.273 -0.478l1.316 -0.767c0.17 -0.099 0.38 -0.1 0.55 -0.003l1.285 0.734l1.556 -0.9l-0.001 -1.481c0 -0.196 0.104 -0.378 0.273 -0.476l1.323 -0.771c0.17 -0.099 0.38 -0.1 0.55 -0.003l1.298 0.741l1.55 -0.896l-0.001 -1.474c0 -0.196 0.104 -0.378 0.273 -0.476l1.324 -0.771c0.17 -0.099 0.38 -0.1 0.55 -0.003l1.291 0.737l0.036 0.021c0.171 0.098 0.278 0.28 0.278 0.478l0 0.041l0.009 7.765C21.87 19.081 21.766 19.262 21.597 19.361"/></g></svg>