<svg width="24px" height="24px" viewBox="0 0 24 24" xmlns="http://www.w3.org/2000/svg"><path d="M3.352 6.671c0.028 -0.277 -0.08 -0.553 -0.286 -0.741l-2.114 -2.55v-0.38h6.572l5.081 11.142 4.467 -11.142h6.267v0.38l-1.809 1.735c-0.154 0.117 -0.235 0.314 -0.202 0.506v12.75c-0.033 0.192 0.047 0.389 0.202 0.506l1.767 1.735v0.38h-8.892v-0.38l1.833 -1.777c0.178 -0.178 0.178 -0.235 0.178 -0.506v-10.303l-5.095 12.933h-0.689l-5.925 -12.933v8.667c-0.052 0.365 0.071 0.731 0.329 0.994l2.381 2.888v0.38h-6.75v-0.375l2.381 -2.892c0.253 -0.262 0.37 -0.633 0.304 -0.994z"/></svg>